<mxfile host="Electron" modified="2023-09-24T03:54:52.615Z" agent="Mozilla/5.0 (Windows NT 10.0; Win64; x64) AppleWebKit/537.36 (KHTML, like Gecko) draw.io/21.7.5 Chrome/114.0.5735.289 Electron/25.8.1 Safari/537.36" etag="PiMM9i6MDO09Qj63Ba9O" version="21.7.5" type="device">
  <diagram name="Page-1" id="RLboldwgPuiFbGZkpBUd">
    <mxGraphModel dx="1418" dy="820" grid="1" gridSize="10" guides="1" tooltips="1" connect="1" arrows="1" fold="1" page="1" pageScale="1" pageWidth="827" pageHeight="1169" math="0" shadow="0">
      <root>
        <mxCell id="0" />
        <mxCell id="1" parent="0" />
        <mxCell id="Dn8w527fwDqO1x8mwkwv-63" value="" style="rounded=0;whiteSpace=wrap;html=1;labelBackgroundColor=none;fontSize=13;fillColor=#E6E6E6;" parent="1" vertex="1">
          <mxGeometry x="30" y="100" width="750" height="490" as="geometry" />
        </mxCell>
        <mxCell id="Dn8w527fwDqO1x8mwkwv-35" value="" style="rounded=0;whiteSpace=wrap;html=1;fillColor=#dae8fc;strokeColor=#6c8ebf;" parent="1" vertex="1">
          <mxGeometry x="290" y="130" width="480" height="440" as="geometry" />
        </mxCell>
        <mxCell id="Dn8w527fwDqO1x8mwkwv-14" value="" style="rounded=0;whiteSpace=wrap;html=1;fillColor=#fff2cc;strokeColor=#d6b656;" parent="1" vertex="1">
          <mxGeometry x="390" y="180" width="360" height="370" as="geometry" />
        </mxCell>
        <mxCell id="Dn8w527fwDqO1x8mwkwv-6" value="API Gateway" style="sketch=0;pointerEvents=1;shadow=0;dashed=0;html=1;strokeColor=none;fillColor=#505050;labelPosition=center;verticalLabelPosition=bottom;verticalAlign=top;outlineConnect=0;align=center;shape=mxgraph.office.servers.reverse_proxy;" parent="1" vertex="1">
          <mxGeometry x="410" y="328.5" width="41" height="53" as="geometry" />
        </mxCell>
        <mxCell id="Dn8w527fwDqO1x8mwkwv-8" value="Backend 1&lt;br&gt;.NET" style="outlineConnect=0;dashed=0;verticalLabelPosition=bottom;verticalAlign=top;align=center;html=1;shape=mxgraph.aws3.android;fillColor=#115193;gradientColor=none;" parent="1" vertex="1">
          <mxGeometry x="658.25" y="216.4" width="73.5" height="84" as="geometry" />
        </mxCell>
        <mxCell id="Dn8w527fwDqO1x8mwkwv-9" value="Backend 2&lt;br&gt;(SvelteKit)" style="outlineConnect=0;dashed=0;verticalLabelPosition=bottom;verticalAlign=top;align=center;html=1;shape=mxgraph.aws3.android;fillColor=#FF6830;gradientColor=none;" parent="1" vertex="1">
          <mxGeometry x="600" y="313" width="73.5" height="84" as="geometry" />
        </mxCell>
        <mxCell id="Dn8w527fwDqO1x8mwkwv-12" value="Web Server" style="verticalLabelPosition=bottom;sketch=0;aspect=fixed;html=1;verticalAlign=top;strokeColor=none;align=center;outlineConnect=0;shape=mxgraph.citrix.web_server;" parent="1" vertex="1">
          <mxGeometry x="590" y="190" width="51" height="60" as="geometry" />
        </mxCell>
        <mxCell id="Dn8w527fwDqO1x8mwkwv-16" value="Frontend (Vue)" style="outlineConnect=0;dashed=0;verticalLabelPosition=bottom;verticalAlign=top;align=center;html=1;shape=mxgraph.aws3.android;fillColor=#8CC64F;gradientColor=none;" parent="1" vertex="1">
          <mxGeometry x="620" y="430" width="73.5" height="84" as="geometry" />
        </mxCell>
        <mxCell id="Dn8w527fwDqO1x8mwkwv-22" value="/files" style="curved=1;endArrow=classic;html=1;rounded=0;startArrow=classic;startFill=1;labelBackgroundColor=none;" parent="1" source="Dn8w527fwDqO1x8mwkwv-6" target="Dn8w527fwDqO1x8mwkwv-12" edge="1">
          <mxGeometry x="0.4386" y="15" width="50" height="50" relative="1" as="geometry">
            <mxPoint x="490" y="330" as="sourcePoint" />
            <mxPoint x="540" y="280" as="targetPoint" />
            <Array as="points">
              <mxPoint x="520" y="320" />
              <mxPoint x="520" y="260" />
            </Array>
            <mxPoint as="offset" />
          </mxGeometry>
        </mxCell>
        <mxCell id="Dn8w527fwDqO1x8mwkwv-23" value="/api/be2/[id]" style="curved=1;endArrow=classic;html=1;rounded=0;startArrow=classic;startFill=1;labelBackgroundColor=none;" parent="1" source="Dn8w527fwDqO1x8mwkwv-6" target="Dn8w527fwDqO1x8mwkwv-9" edge="1">
          <mxGeometry x="-0.0328" y="19" width="50" height="50" relative="1" as="geometry">
            <mxPoint x="461" y="360.31963470319647" as="sourcePoint" />
            <mxPoint x="589.9999999999998" y="239.3506493506493" as="targetPoint" />
            <Array as="points">
              <mxPoint x="540" y="380" />
              <mxPoint x="590" y="360" />
            </Array>
            <mxPoint as="offset" />
          </mxGeometry>
        </mxCell>
        <mxCell id="Dn8w527fwDqO1x8mwkwv-25" value="http://fe.com" style="curved=1;endArrow=classic;html=1;rounded=0;startArrow=classic;startFill=1;labelBackgroundColor=none;" parent="1" source="Dn8w527fwDqO1x8mwkwv-6" target="Dn8w527fwDqO1x8mwkwv-16" edge="1">
          <mxGeometry x="0.1478" y="23" width="50" height="50" relative="1" as="geometry">
            <mxPoint x="461" y="362.42677824267787" as="sourcePoint" />
            <mxPoint x="559.9999999999998" y="256.7723342939481" as="targetPoint" />
            <Array as="points">
              <mxPoint x="480" y="410" />
              <mxPoint x="500" y="450" />
              <mxPoint x="540" y="460" />
            </Array>
            <mxPoint as="offset" />
          </mxGeometry>
        </mxCell>
        <mxCell id="Dn8w527fwDqO1x8mwkwv-27" value="/api/be1-1&lt;br&gt;/api/be1-2" style="curved=1;endArrow=classic;html=1;rounded=0;startArrow=classic;startFill=1;labelBackgroundColor=none;" parent="1" source="Dn8w527fwDqO1x8mwkwv-6" target="Dn8w527fwDqO1x8mwkwv-8" edge="1">
          <mxGeometry x="-0.1014" y="24" width="50" height="50" relative="1" as="geometry">
            <mxPoint x="461" y="360.31963470319647" as="sourcePoint" />
            <mxPoint x="569.9999999999998" y="242.35602094240835" as="targetPoint" />
            <Array as="points">
              <mxPoint x="550" y="340" />
              <mxPoint x="610" y="290" />
            </Array>
            <mxPoint as="offset" />
          </mxGeometry>
        </mxCell>
        <mxCell id="Dn8w527fwDqO1x8mwkwv-30" value="User" style="dashed=0;outlineConnect=0;html=1;align=center;labelPosition=center;verticalLabelPosition=bottom;verticalAlign=top;shape=mxgraph.weblogos.chrome;fillColor=#FF6830;" parent="1" vertex="1">
          <mxGeometry x="40" y="141.00000000000003" width="74.8" height="75.4" as="geometry" />
        </mxCell>
        <mxCell id="Dn8w527fwDqO1x8mwkwv-31" value="network Proxy" style="sketch=0;aspect=fixed;html=1;points=[];align=center;image;fontSize=12;image=img/lib/mscae/Docker.svg;fillColor=#FF6830;labelBackgroundColor=none;" parent="1" vertex="1">
          <mxGeometry x="444" y="480" width="50" height="41" as="geometry" />
        </mxCell>
        <mxCell id="Dn8w527fwDqO1x8mwkwv-33" value="docker &lt;br&gt;Registry" style="sketch=0;aspect=fixed;html=1;points=[];align=center;image;fontSize=12;image=img/lib/mscae/Docker.svg;fillColor=#FF6830;labelBackgroundColor=none;" parent="1" vertex="1">
          <mxGeometry x="190" y="250" width="50" height="41" as="geometry" />
        </mxCell>
        <mxCell id="Dn8w527fwDqO1x8mwkwv-34" value="" style="endArrow=classic;startArrow=classic;html=1;rounded=0;" parent="1" source="Dn8w527fwDqO1x8mwkwv-33" target="Dn8w527fwDqO1x8mwkwv-14" edge="1">
          <mxGeometry width="50" height="50" relative="1" as="geometry">
            <mxPoint x="490" y="330" as="sourcePoint" />
            <mxPoint x="540" y="280" as="targetPoint" />
          </mxGeometry>
        </mxCell>
        <mxCell id="Dn8w527fwDqO1x8mwkwv-39" value="&lt;font style=&quot;font-size: 18px;&quot;&gt;Developer Machine&lt;/font&gt;" style="text;html=1;strokeColor=none;fillColor=none;align=center;verticalAlign=middle;whiteSpace=wrap;rounded=0;" parent="1" vertex="1">
          <mxGeometry x="596.5" y="141" width="170" height="30" as="geometry" />
        </mxCell>
        <mxCell id="Dn8w527fwDqO1x8mwkwv-40" value="Git" style="verticalLabelPosition=bottom;html=1;verticalAlign=top;align=center;strokeColor=none;fillColor=#00BEF2;shape=mxgraph.azure.git_repository;" parent="1" vertex="1">
          <mxGeometry x="100" y="490" width="50" height="50" as="geometry" />
        </mxCell>
        <mxCell id="Dn8w527fwDqO1x8mwkwv-41" value="" style="endArrow=classic;startArrow=classic;html=1;rounded=0;" parent="1" source="Dn8w527fwDqO1x8mwkwv-40" target="Dn8w527fwDqO1x8mwkwv-43" edge="1">
          <mxGeometry width="50" height="50" relative="1" as="geometry">
            <mxPoint x="170" y="350" as="sourcePoint" />
            <mxPoint x="220" y="220" as="targetPoint" />
          </mxGeometry>
        </mxCell>
        <mxCell id="Dn8w527fwDqO1x8mwkwv-43" value="VS Code" style="aspect=fixed;html=1;points=[];align=center;image;fontSize=12;image=img/lib/azure2/general/Code.svg;fillColor=#FF6830;labelBackgroundColor=none;" parent="1" vertex="1">
          <mxGeometry x="310.7" y="490" width="64" height="52" as="geometry" />
        </mxCell>
        <mxCell id="Dn8w527fwDqO1x8mwkwv-44" value="http://ip:1234" style="endArrow=classic;startArrow=classic;html=1;rounded=0;labelBackgroundColor=none;" parent="1" source="Dn8w527fwDqO1x8mwkwv-43" target="Dn8w527fwDqO1x8mwkwv-6" edge="1">
          <mxGeometry x="-0.0323" y="5" width="50" height="50" relative="1" as="geometry">
            <mxPoint x="510" y="390" as="sourcePoint" />
            <mxPoint x="560" y="340" as="targetPoint" />
            <mxPoint as="offset" />
          </mxGeometry>
        </mxCell>
        <mxCell id="Dn8w527fwDqO1x8mwkwv-45" value="Production&lt;br&gt;K8s" style="sketch=0;aspect=fixed;html=1;points=[];align=center;image;fontSize=12;image=img/lib/mscae/Kubernetes.svg;fillColor=#FF6830;labelBackgroundColor=none;" parent="1" vertex="1">
          <mxGeometry x="50" y="310" width="50" height="48" as="geometry" />
        </mxCell>
        <mxCell id="Dn8w527fwDqO1x8mwkwv-47" value="External API" style="outlineConnect=0;dashed=0;verticalLabelPosition=bottom;verticalAlign=top;align=center;html=1;shape=mxgraph.aws3.android;fillColor=#FF0000;gradientColor=none;" parent="1" vertex="1">
          <mxGeometry x="190" y="130" width="73.5" height="84" as="geometry" />
        </mxCell>
        <mxCell id="Dn8w527fwDqO1x8mwkwv-48" value="" style="curved=1;endArrow=classic;html=1;rounded=0;startArrow=classic;startFill=1;labelBackgroundColor=none;" parent="1" source="Dn8w527fwDqO1x8mwkwv-14" target="Dn8w527fwDqO1x8mwkwv-47" edge="1">
          <mxGeometry x="0.6259" y="23" width="50" height="50" relative="1" as="geometry">
            <mxPoint x="461" y="387.7777777777776" as="sourcePoint" />
            <mxPoint x="606.4999999999998" y="465.15281501340496" as="targetPoint" />
            <Array as="points">
              <mxPoint x="380" y="150" />
              <mxPoint x="320" y="140" />
            </Array>
            <mxPoint as="offset" />
          </mxGeometry>
        </mxCell>
        <mxCell id="Dn8w527fwDqO1x8mwkwv-51" value="&lt;font style=&quot;font-size: 13px;&quot;&gt;test&lt;/font&gt;" style="points=[];aspect=fixed;html=1;align=center;shadow=0;dashed=0;image;image=img/lib/allied_telesis/computer_and_terminals/Server_Desktop.svg;fontSize=18;fillColor=#FF0000;labelBackgroundColor=none;" parent="1" vertex="1">
          <mxGeometry x="321.39999999999986" y="350" width="42.599999999999994" height="54" as="geometry" />
        </mxCell>
        <mxCell id="Dn8w527fwDqO1x8mwkwv-53" value="&lt;font style=&quot;font-size: 12px;&quot;&gt;push image&lt;/font&gt;" style="endArrow=classic;html=1;rounded=0;fontSize=18;labelBackgroundColor=none;" parent="1" source="_mcxq7aReXcQ5QIKJv-L-1" target="Dn8w527fwDqO1x8mwkwv-33" edge="1">
          <mxGeometry x="-0.0009" width="50" height="50" relative="1" as="geometry">
            <mxPoint x="50" y="90" as="sourcePoint" />
            <mxPoint x="560" y="330" as="targetPoint" />
            <mxPoint as="offset" />
          </mxGeometry>
        </mxCell>
        <mxCell id="Dn8w527fwDqO1x8mwkwv-54" value="" style="endArrow=classic;html=1;rounded=0;fontSize=12;" parent="1" source="Dn8w527fwDqO1x8mwkwv-33" target="Dn8w527fwDqO1x8mwkwv-45" edge="1">
          <mxGeometry width="50" height="50" relative="1" as="geometry">
            <mxPoint x="510" y="380" as="sourcePoint" />
            <mxPoint x="560" y="330" as="targetPoint" />
          </mxGeometry>
        </mxCell>
        <mxCell id="Dn8w527fwDqO1x8mwkwv-55" value="" style="endArrow=classic;html=1;rounded=0;fontSize=13;" parent="1" source="Dn8w527fwDqO1x8mwkwv-33" target="Dn8w527fwDqO1x8mwkwv-51" edge="1">
          <mxGeometry width="50" height="50" relative="1" as="geometry">
            <mxPoint x="510" y="380" as="sourcePoint" />
            <mxPoint x="560" y="330" as="targetPoint" />
          </mxGeometry>
        </mxCell>
        <mxCell id="Dn8w527fwDqO1x8mwkwv-60" value="CI" style="endArrow=classic;html=1;rounded=0;fontSize=13;labelBackgroundColor=none;" parent="1" source="_mcxq7aReXcQ5QIKJv-L-1" target="Dn8w527fwDqO1x8mwkwv-51" edge="1">
          <mxGeometry x="0.1819" y="4" width="50" height="50" relative="1" as="geometry">
            <mxPoint x="440" y="430" as="sourcePoint" />
            <mxPoint x="490" y="380" as="targetPoint" />
            <mxPoint as="offset" />
          </mxGeometry>
        </mxCell>
        <mxCell id="Dn8w527fwDqO1x8mwkwv-61" value="CD" style="endArrow=classic;html=1;rounded=0;fontSize=13;labelBackgroundColor=none;" parent="1" source="_mcxq7aReXcQ5QIKJv-L-1" target="Dn8w527fwDqO1x8mwkwv-45" edge="1">
          <mxGeometry x="-0.099" y="-27" width="50" height="50" relative="1" as="geometry">
            <mxPoint x="30" y="380" as="sourcePoint" />
            <mxPoint x="490" y="380" as="targetPoint" />
            <mxPoint as="offset" />
          </mxGeometry>
        </mxCell>
        <mxCell id="_mcxq7aReXcQ5QIKJv-L-1" value="&lt;font style=&quot;font-size: 13px;&quot;&gt;CI/CD&lt;/font&gt;" style="points=[];aspect=fixed;html=1;align=center;shadow=0;dashed=0;image;image=img/lib/allied_telesis/computer_and_terminals/Server_Desktop.svg;fontSize=18;fillColor=#FF0000;labelBackgroundColor=none;" parent="1" vertex="1">
          <mxGeometry x="189.99999999999994" y="390" width="42.599999999999994" height="54" as="geometry" />
        </mxCell>
        <mxCell id="_mcxq7aReXcQ5QIKJv-L-2" value="" style="endArrow=classic;html=1;rounded=0;" parent="1" source="Dn8w527fwDqO1x8mwkwv-40" target="_mcxq7aReXcQ5QIKJv-L-1" edge="1">
          <mxGeometry width="50" height="50" relative="1" as="geometry">
            <mxPoint x="-90" y="400" as="sourcePoint" />
            <mxPoint x="600" y="400" as="targetPoint" />
          </mxGeometry>
        </mxCell>
        <mxCell id="_mcxq7aReXcQ5QIKJv-L-3" value="" style="endArrow=classic;html=1;rounded=0;" parent="1" source="Dn8w527fwDqO1x8mwkwv-45" target="Dn8w527fwDqO1x8mwkwv-30" edge="1">
          <mxGeometry width="50" height="50" relative="1" as="geometry">
            <mxPoint x="550" y="430" as="sourcePoint" />
            <mxPoint x="600" y="380" as="targetPoint" />
          </mxGeometry>
        </mxCell>
        <mxCell id="_mcxq7aReXcQ5QIKJv-L-4" value="" style="endArrow=classic;html=1;rounded=0;" parent="1" source="Dn8w527fwDqO1x8mwkwv-47" target="Dn8w527fwDqO1x8mwkwv-45" edge="1">
          <mxGeometry width="50" height="50" relative="1" as="geometry">
            <mxPoint x="550" y="430" as="sourcePoint" />
            <mxPoint x="600" y="380" as="targetPoint" />
          </mxGeometry>
        </mxCell>
      </root>
    </mxGraphModel>
  </diagram>
</mxfile>
